<mxfile host="65bd71144e">
    <diagram id="_k8TURm8gIdta8wLQPci" name="Page-1">
        <mxGraphModel dx="481" dy="755" grid="1" gridSize="10" guides="1" tooltips="1" connect="1" arrows="1" fold="1" page="0" pageScale="1" pageWidth="583" pageHeight="413" math="0" shadow="0">
            <root>
                <mxCell id="0"/>
                <mxCell id="1" parent="0"/>
                <mxCell id="142" value="POWER SYSTEM TRANSMISSION CALCULATOR" style="swimlane;childLayout=stackLayout;resizeParent=1;resizeParentMax=0;horizontal=1;startSize=100;horizontalStack=0;html=1;fontSize=50;" parent="1" vertex="1">
                    <mxGeometry x="40" y="-280" width="2098" height="5528.5" as="geometry"/>
                </mxCell>
                <mxCell id="147" value="MÓDULO DE CORREAS PLANAS [FORBO]" style="swimlane;startSize=60;horizontal=0;html=1;fontSize=30;" vertex="1" parent="142">
                    <mxGeometry y="100" width="2098" height="820" as="geometry"/>
                </mxCell>
                <mxCell id="146" value="MÓDULO DE CORREAS TRAPEZOIDALES [OPTIBELT]" style="swimlane;startSize=60;horizontal=0;html=1;fontSize=30;" vertex="1" parent="142">
                    <mxGeometry y="920" width="2098" height="820" as="geometry"/>
                </mxCell>
                <mxCell id="145" value="MÓDULO DE CADENAS [RENOLD]" style="swimlane;startSize=60;horizontal=0;html=1;fontSize=30;" vertex="1" parent="142">
                    <mxGeometry y="1740" width="2098" height="820" as="geometry"/>
                </mxCell>
                <mxCell id="144" value="MÓDULO DE ENGRANAJES [AGMA]&amp;nbsp;" style="swimlane;startSize=60;horizontal=0;html=1;fontSize=30;" vertex="1" parent="142">
                    <mxGeometry y="2560" width="2098" height="820" as="geometry"/>
                </mxCell>
                <mxCell id="151" value="Parametros iniciales" style="rounded=1;whiteSpace=wrap;html=1;comic=0;" vertex="1" parent="144">
                    <mxGeometry x="144" y="210" width="140" height="75" as="geometry"/>
                </mxCell>
                <mxCell id="152" value="&lt;div style=&quot;&quot;&gt;&lt;span style=&quot;background-color: initial;&quot;&gt;- Potencia del motor&amp;nbsp; &amp;nbsp; &amp;nbsp; &amp;nbsp; &amp;nbsp; &amp;nbsp;&amp;nbsp;&lt;/span&gt;&lt;/div&gt;&lt;div style=&quot;&quot;&gt;&lt;span style=&quot;background-color: initial;&quot;&gt;- RPM del motor&amp;nbsp; &amp;nbsp; &amp;nbsp; &amp;nbsp; &amp;nbsp; &amp;nbsp; &amp;nbsp; &amp;nbsp; &amp;nbsp; &amp;nbsp;&amp;nbsp;&lt;/span&gt;&lt;/div&gt;&lt;div style=&quot;&quot;&gt;&lt;span style=&quot;background-color: initial;&quot;&gt;- Diámetro de la polea menor&amp;nbsp;&lt;/span&gt;&lt;/div&gt;&lt;div style=&quot;&quot;&gt;&lt;span style=&quot;background-color: initial;&quot;&gt;- Diámetro de la polea mayor&amp;nbsp; &amp;nbsp;&lt;/span&gt;&lt;/div&gt;&lt;div style=&quot;&quot;&gt;&lt;span style=&quot;background-color: initial;&quot;&gt;- Distancia entre poleas&amp;nbsp; &amp;nbsp; &amp;nbsp; &amp;nbsp; &amp;nbsp; &amp;nbsp; &amp;nbsp;&lt;/span&gt;&lt;/div&gt;" style="shape=parallelogram;perimeter=parallelogramPerimeter;whiteSpace=wrap;html=1;fixedSize=1;align=center;" vertex="1" parent="144">
                    <mxGeometry x="87" y="330" width="254" height="110" as="geometry"/>
                </mxCell>
                <mxCell id="143" value="MÓDULO DE EJES DE TRANSMISIÓN DE POTENCIA" style="swimlane;startSize=60;horizontal=0;html=1;fontSize=30;" parent="142" vertex="1">
                    <mxGeometry y="3380" width="2098" height="1328.5" as="geometry"/>
                </mxCell>
                <mxCell id="2" value="Parametros iniciales" style="rounded=1;whiteSpace=wrap;html=1;comic=0;" parent="143" vertex="1">
                    <mxGeometry x="144" y="75" width="140" height="75" as="geometry"/>
                </mxCell>
                <mxCell id="3" value="Número de nodos" style="shape=parallelogram;perimeter=parallelogramPerimeter;whiteSpace=wrap;html=1;fixedSize=1;" parent="143" vertex="1">
                    <mxGeometry x="144" y="315" width="140" height="60" as="geometry"/>
                </mxCell>
                <mxCell id="19" style="edgeStyle=orthogonalEdgeStyle;html=1;exitX=0.5;exitY=1;exitDx=0;exitDy=0;entryX=0.5;entryY=0;entryDx=0;entryDy=0;strokeColor=default;" parent="143" source="2" target="3" edge="1">
                    <mxGeometry relative="1" as="geometry"/>
                </mxCell>
                <mxCell id="4" value="Se actualizan 6 tablas en función al número de nodos [N] y tramos [N - 1]" style="rounded=0;whiteSpace=wrap;html=1;" parent="143" vertex="1">
                    <mxGeometry x="314" y="315" width="220" height="60" as="geometry"/>
                </mxCell>
                <mxCell id="20" style="edgeStyle=orthogonalEdgeStyle;html=1;exitX=1;exitY=0.5;exitDx=0;exitDy=0;entryX=0;entryY=0.5;entryDx=0;entryDy=0;strokeColor=default;" parent="143" source="3" target="4" edge="1">
                    <mxGeometry relative="1" as="geometry"/>
                </mxCell>
                <mxCell id="5" value="Tabla de propiedades geométricas y mecánicas, de cargas distribuidas y del número de elementos" style="text;html=1;strokeColor=none;fillColor=none;align=center;verticalAlign=middle;whiteSpace=wrap;rounded=0;comic=0;" parent="143" vertex="1">
                    <mxGeometry x="589" y="151" width="300" height="50" as="geometry"/>
                </mxCell>
                <mxCell id="14" style="edgeStyle=orthogonalEdgeStyle;html=1;exitX=1;exitY=0.5;exitDx=0;exitDy=0;entryX=0;entryY=0.5;entryDx=0;entryDy=0;strokeColor=default;" parent="143" source="4" target="5" edge="1">
                    <mxGeometry relative="1" as="geometry"/>
                </mxCell>
                <mxCell id="6" value="Tabla de fuerzas, momentos y apoyos&lt;br&gt;" style="text;html=1;strokeColor=none;fillColor=none;align=center;verticalAlign=middle;whiteSpace=wrap;rounded=0;comic=0;" parent="143" vertex="1">
                    <mxGeometry x="589" y="219" width="300" height="50" as="geometry"/>
                </mxCell>
                <mxCell id="15" style="edgeStyle=orthogonalEdgeStyle;html=1;exitX=1;exitY=0.5;exitDx=0;exitDy=0;entryX=0;entryY=0.5;entryDx=0;entryDy=0;strokeColor=default;" parent="143" source="4" target="6" edge="1">
                    <mxGeometry relative="1" as="geometry"/>
                </mxCell>
                <mxCell id="22" style="edgeStyle=orthogonalEdgeStyle;html=1;exitX=1;exitY=0.5;exitDx=0;exitDy=0;entryX=1;entryY=0.5;entryDx=0;entryDy=0;strokeColor=default;" parent="143" source="5" target="6" edge="1">
                    <mxGeometry relative="1" as="geometry">
                        <Array as="points">
                            <mxPoint x="904" y="176"/>
                            <mxPoint x="904" y="244"/>
                        </Array>
                    </mxGeometry>
                </mxCell>
                <mxCell id="7" value="Tabla de factores de concentración de esfuerzos estáticos y dinámicos" style="text;html=1;strokeColor=none;fillColor=none;align=center;verticalAlign=middle;whiteSpace=wrap;rounded=0;comic=0;" parent="143" vertex="1">
                    <mxGeometry x="589" y="287" width="300" height="50" as="geometry"/>
                </mxCell>
                <mxCell id="16" style="edgeStyle=orthogonalEdgeStyle;html=1;exitX=1;exitY=0.5;exitDx=0;exitDy=0;entryX=0;entryY=0.5;entryDx=0;entryDy=0;strokeColor=default;" parent="143" source="4" target="7" edge="1">
                    <mxGeometry relative="1" as="geometry"/>
                </mxCell>
                <mxCell id="23" style="edgeStyle=orthogonalEdgeStyle;html=1;exitX=1;exitY=0.5;exitDx=0;exitDy=0;entryX=1;entryY=0.5;entryDx=0;entryDy=0;strokeColor=default;" parent="143" source="6" target="7" edge="1">
                    <mxGeometry relative="1" as="geometry">
                        <Array as="points">
                            <mxPoint x="904" y="244"/>
                            <mxPoint x="904" y="312"/>
                        </Array>
                    </mxGeometry>
                </mxCell>
                <mxCell id="8" value="Tabla de factores que modifican el límite de la fatiga" style="text;html=1;strokeColor=none;fillColor=none;align=center;verticalAlign=middle;whiteSpace=wrap;rounded=0;comic=0;" parent="143" vertex="1">
                    <mxGeometry x="589" y="355" width="300" height="50" as="geometry"/>
                </mxCell>
                <mxCell id="13" style="edgeStyle=orthogonalEdgeStyle;html=1;exitX=1;exitY=0.5;exitDx=0;exitDy=0;entryX=0;entryY=0.5;entryDx=0;entryDy=0;strokeColor=default;" parent="143" source="4" target="8" edge="1">
                    <mxGeometry relative="1" as="geometry"/>
                </mxCell>
                <mxCell id="27" style="edgeStyle=orthogonalEdgeStyle;html=1;exitX=1;exitY=0.5;exitDx=0;exitDy=0;entryX=1;entryY=0.5;entryDx=0;entryDy=0;strokeColor=default;" parent="143" source="7" target="8" edge="1">
                    <mxGeometry relative="1" as="geometry">
                        <Array as="points">
                            <mxPoint x="904" y="312"/>
                            <mxPoint x="904" y="380"/>
                        </Array>
                    </mxGeometry>
                </mxCell>
                <mxCell id="9" value="Tabla de reacciones de fuerzas y momentos, de esfuerzos estáticos máximos y de factores de seguridad estáticos mínimos" style="text;html=1;strokeColor=none;fillColor=none;align=center;verticalAlign=middle;whiteSpace=wrap;rounded=0;comic=0;" parent="143" vertex="1">
                    <mxGeometry x="589" y="423" width="300" height="50" as="geometry"/>
                </mxCell>
                <mxCell id="17" style="edgeStyle=orthogonalEdgeStyle;html=1;exitX=1;exitY=0.5;exitDx=0;exitDy=0;entryX=0;entryY=0.5;entryDx=0;entryDy=0;strokeColor=default;" parent="143" source="4" target="9" edge="1">
                    <mxGeometry relative="1" as="geometry"/>
                </mxCell>
                <mxCell id="10" value="Tabla de deformaciones lineales y angularess, de esfuerzos dinámicos máximos y de factores de seguridad dinámicos mínimos" style="text;html=1;strokeColor=none;fillColor=none;align=center;verticalAlign=middle;whiteSpace=wrap;rounded=0;comic=0;" parent="143" vertex="1">
                    <mxGeometry x="589" y="491" width="300" height="50" as="geometry"/>
                </mxCell>
                <mxCell id="18" style="edgeStyle=orthogonalEdgeStyle;html=1;exitX=1;exitY=0.5;exitDx=0;exitDy=0;entryX=0;entryY=0.5;entryDx=0;entryDy=0;strokeColor=default;" parent="143" source="4" target="10" edge="1">
                    <mxGeometry relative="1" as="geometry"/>
                </mxCell>
                <mxCell id="28" value="Teoría de&lt;br&gt;análisis" style="rhombus;whiteSpace=wrap;html=1;rounded=1;comic=0;" parent="143" vertex="1">
                    <mxGeometry x="945" y="165" width="116" height="100" as="geometry"/>
                </mxCell>
                <mxCell id="57" style="edgeStyle=orthogonalEdgeStyle;html=1;exitX=1;exitY=0.5;exitDx=0;exitDy=0;entryX=0.043;entryY=0.51;entryDx=0;entryDy=0;entryPerimeter=0;" parent="143" source="5" target="28" edge="1">
                    <mxGeometry relative="1" as="geometry">
                        <Array as="points">
                            <mxPoint x="924" y="176"/>
                            <mxPoint x="924" y="216"/>
                        </Array>
                    </mxGeometry>
                </mxCell>
                <mxCell id="58" style="edgeStyle=orthogonalEdgeStyle;html=1;exitX=1;exitY=0.5;exitDx=0;exitDy=0;entryX=0.039;entryY=0.51;entryDx=0;entryDy=0;entryPerimeter=0;" parent="143" source="6" target="28" edge="1">
                    <mxGeometry relative="1" as="geometry">
                        <Array as="points">
                            <mxPoint x="924" y="244"/>
                            <mxPoint x="924" y="216"/>
                        </Array>
                    </mxGeometry>
                </mxCell>
                <mxCell id="34" value="Bernoulli" style="rounded=0;whiteSpace=wrap;html=1;comic=0;" parent="143" vertex="1">
                    <mxGeometry x="953" y="111" width="100" height="39" as="geometry"/>
                </mxCell>
                <mxCell id="52" style="edgeStyle=orthogonalEdgeStyle;html=1;exitX=0.5;exitY=0;exitDx=0;exitDy=0;entryX=0.5;entryY=1;entryDx=0;entryDy=0;" parent="143" source="28" target="34" edge="1">
                    <mxGeometry relative="1" as="geometry"/>
                </mxCell>
                <mxCell id="35" value="Timoshenko" style="rounded=0;whiteSpace=wrap;html=1;comic=0;" parent="143" vertex="1">
                    <mxGeometry x="953" y="280" width="100" height="39" as="geometry"/>
                </mxCell>
                <mxCell id="36" style="edgeStyle=orthogonalEdgeStyle;html=1;exitX=0.5;exitY=1;exitDx=0;exitDy=0;entryX=0.5;entryY=0;entryDx=0;entryDy=0;strokeColor=default;" parent="143" source="28" target="35" edge="1">
                    <mxGeometry relative="1" as="geometry"/>
                </mxCell>
                <mxCell id="82" style="edgeStyle=orthogonalEdgeStyle;html=1;exitX=1;exitY=0.5;exitDx=0;exitDy=0;entryX=1;entryY=0.5;entryDx=0;entryDy=0;jumpStyle=arc;jumpSize=20;" parent="143" source="54" target="9" edge="1">
                    <mxGeometry relative="1" as="geometry">
                        <Array as="points">
                            <mxPoint x="1334" y="141"/>
                            <mxPoint x="1334" y="448"/>
                        </Array>
                    </mxGeometry>
                </mxCell>
                <mxCell id="54" value="Cálculo de las fuerzas y deformaciones lineales en el eje X" style="rounded=0;whiteSpace=wrap;html=1;" parent="143" vertex="1">
                    <mxGeometry x="1104" y="111" width="210" height="60" as="geometry"/>
                </mxCell>
                <mxCell id="60" style="edgeStyle=orthogonalEdgeStyle;html=1;exitX=1;exitY=0.5;exitDx=0;exitDy=0;entryX=0;entryY=0.5;entryDx=0;entryDy=0;" parent="143" source="28" target="54" edge="1">
                    <mxGeometry relative="1" as="geometry"/>
                </mxCell>
                <mxCell id="55" value="Cálculo de los momentos y deformaciones angulares en el eje X" style="rounded=0;whiteSpace=wrap;html=1;" parent="143" vertex="1">
                    <mxGeometry x="1104" y="185" width="210" height="60" as="geometry"/>
                </mxCell>
                <mxCell id="59" style="edgeStyle=orthogonalEdgeStyle;html=1;exitX=1;exitY=0.5;exitDx=0;exitDy=0;entryX=0;entryY=0.5;entryDx=0;entryDy=0;" parent="143" source="28" target="55" edge="1">
                    <mxGeometry relative="1" as="geometry"/>
                </mxCell>
                <mxCell id="83" style="edgeStyle=orthogonalEdgeStyle;html=1;exitX=1;exitY=0.5;exitDx=0;exitDy=0;entryX=1;entryY=0.5;entryDx=0;entryDy=0;jumpStyle=arc;jumpSize=20;" parent="143" source="56" target="10" edge="1">
                    <mxGeometry relative="1" as="geometry">
                        <Array as="points">
                            <mxPoint x="1334" y="289"/>
                            <mxPoint x="1334" y="516"/>
                        </Array>
                    </mxGeometry>
                </mxCell>
                <mxCell id="56" value="Cálculo de las fuerzas, momentos, deformaciones lineales y angulares en los eje Y y Z" style="rounded=0;whiteSpace=wrap;html=1;" parent="143" vertex="1">
                    <mxGeometry x="1104" y="259" width="210" height="60" as="geometry"/>
                </mxCell>
                <mxCell id="61" style="edgeStyle=orthogonalEdgeStyle;html=1;exitX=1;exitY=0.5;exitDx=0;exitDy=0;entryX=0;entryY=0.5;entryDx=0;entryDy=0;" parent="143" source="28" target="56" edge="1">
                    <mxGeometry relative="1" as="geometry"/>
                </mxCell>
                <mxCell id="68" value="Criterio de&lt;br&gt;análisis" style="rhombus;whiteSpace=wrap;html=1;rounded=1;comic=0;" parent="143" vertex="1">
                    <mxGeometry x="1355" y="165" width="116" height="100" as="geometry"/>
                </mxCell>
                <mxCell id="71" style="edgeStyle=orthogonalEdgeStyle;html=1;exitX=1;exitY=0.5;exitDx=0;exitDy=0;entryX=0;entryY=0.5;entryDx=0;entryDy=0;" parent="143" source="54" target="68" edge="1">
                    <mxGeometry relative="1" as="geometry"/>
                </mxCell>
                <mxCell id="73" style="edgeStyle=orthogonalEdgeStyle;html=1;exitX=1;exitY=0.5;exitDx=0;exitDy=0;entryX=0;entryY=0.5;entryDx=0;entryDy=0;" parent="143" source="55" target="68" edge="1">
                    <mxGeometry relative="1" as="geometry"/>
                </mxCell>
                <mxCell id="72" style="edgeStyle=orthogonalEdgeStyle;html=1;exitX=1;exitY=0.5;exitDx=0;exitDy=0;entryX=0;entryY=0.5;entryDx=0;entryDy=0;" parent="143" source="56" target="68" edge="1">
                    <mxGeometry relative="1" as="geometry"/>
                </mxCell>
                <mxCell id="69" value="- Von Misses&lt;br&gt;- Tresca&lt;br&gt;- Rankine" style="rounded=0;whiteSpace=wrap;html=1;comic=0;" parent="143" vertex="1">
                    <mxGeometry x="1363" y="75" width="100" height="75" as="geometry"/>
                </mxCell>
                <mxCell id="67" style="edgeStyle=orthogonalEdgeStyle;html=1;exitX=0.5;exitY=0;exitDx=0;exitDy=0;entryX=0.5;entryY=1;entryDx=0;entryDy=0;" parent="143" source="68" target="69" edge="1">
                    <mxGeometry relative="1" as="geometry"/>
                </mxCell>
                <mxCell id="70" value="- ASME&lt;br&gt;- Soderberg&lt;br&gt;- Goodman" style="rounded=0;whiteSpace=wrap;html=1;comic=0;" parent="143" vertex="1">
                    <mxGeometry x="1363" y="280" width="100" height="75" as="geometry"/>
                </mxCell>
                <mxCell id="66" style="edgeStyle=orthogonalEdgeStyle;html=1;exitX=0.5;exitY=1;exitDx=0;exitDy=0;entryX=0.5;entryY=0;entryDx=0;entryDy=0;strokeColor=default;" parent="143" source="68" target="70" edge="1">
                    <mxGeometry relative="1" as="geometry"/>
                </mxCell>
                <mxCell id="74" value="Esfuerzos estáticos y dinámicos" style="rounded=0;whiteSpace=wrap;html=1;" parent="143" vertex="1">
                    <mxGeometry x="1515" y="75" width="210" height="60" as="geometry"/>
                </mxCell>
                <mxCell id="78" style="edgeStyle=orthogonalEdgeStyle;html=1;exitX=1;exitY=0.5;exitDx=0;exitDy=0;entryX=0;entryY=0.5;entryDx=0;entryDy=0;" parent="143" source="68" target="74" edge="1">
                    <mxGeometry relative="1" as="geometry"/>
                </mxCell>
                <mxCell id="75" value="Límites inferior y superior de la velocidad crítica" style="rounded=0;whiteSpace=wrap;html=1;" parent="143" vertex="1">
                    <mxGeometry x="1515" y="295" width="210" height="60" as="geometry"/>
                </mxCell>
                <mxCell id="76" value="Factores de seguridad estáticos y dinámicos" style="rounded=0;whiteSpace=wrap;html=1;" parent="143" vertex="1">
                    <mxGeometry x="1515" y="148" width="210" height="60" as="geometry"/>
                </mxCell>
                <mxCell id="79" style="edgeStyle=orthogonalEdgeStyle;html=1;exitX=1;exitY=0.5;exitDx=0;exitDy=0;entryX=0;entryY=0.5;entryDx=0;entryDy=0;" parent="143" source="68" target="76" edge="1">
                    <mxGeometry relative="1" as="geometry"/>
                </mxCell>
                <mxCell id="98" style="edgeStyle=orthogonalEdgeStyle;html=1;exitX=0;exitY=0.5;exitDx=0;exitDy=0;entryX=0;entryY=0.5;entryDx=0;entryDy=0;" parent="143" source="77" target="75" edge="1">
                    <mxGeometry relative="1" as="geometry">
                        <Array as="points">
                            <mxPoint x="1494" y="252"/>
                            <mxPoint x="1494" y="325"/>
                        </Array>
                    </mxGeometry>
                </mxCell>
                <mxCell id="77" value="Deformaciones lineales y angulares resultantes" style="rounded=0;whiteSpace=wrap;html=1;" parent="143" vertex="1">
                    <mxGeometry x="1515" y="222" width="210" height="60" as="geometry"/>
                </mxCell>
                <mxCell id="80" style="edgeStyle=orthogonalEdgeStyle;html=1;exitX=1;exitY=0.5;exitDx=0;exitDy=0;entryX=0;entryY=0.5;entryDx=0;entryDy=0;" parent="143" source="68" target="77" edge="1">
                    <mxGeometry relative="1" as="geometry"/>
                </mxCell>
                <mxCell id="102" style="edgeStyle=orthogonalEdgeStyle;jumpStyle=arc;jumpSize=20;html=1;exitX=0;exitY=0.5;exitDx=0;exitDy=0;" parent="143" source="84" edge="1">
                    <mxGeometry relative="1" as="geometry">
                        <mxPoint x="1334" y="445" as="targetPoint"/>
                        <Array as="points">
                            <mxPoint x="1414" y="471"/>
                            <mxPoint x="1414" y="435"/>
                        </Array>
                    </mxGeometry>
                </mxCell>
                <mxCell id="84" value="Factores de seguridad estáticos y dinámicos mínimos" style="rounded=0;whiteSpace=wrap;html=1;" parent="143" vertex="1">
                    <mxGeometry x="1515" y="441" width="210" height="60" as="geometry"/>
                </mxCell>
                <mxCell id="89" style="edgeStyle=orthogonalEdgeStyle;html=1;exitX=1;exitY=0.5;exitDx=0;exitDy=0;entryX=0;entryY=0.5;entryDx=0;entryDy=0;" parent="143" source="8" target="84" edge="1">
                    <mxGeometry relative="1" as="geometry">
                        <Array as="points">
                            <mxPoint x="1084" y="380"/>
                            <mxPoint x="1084" y="471"/>
                        </Array>
                    </mxGeometry>
                </mxCell>
                <mxCell id="85" value="Número de ciclos de vida" style="rounded=0;whiteSpace=wrap;html=1;" parent="143" vertex="1">
                    <mxGeometry x="1515" y="515" width="210" height="60" as="geometry"/>
                </mxCell>
                <mxCell id="90" style="edgeStyle=orthogonalEdgeStyle;html=1;exitX=1;exitY=0.5;exitDx=0;exitDy=0;entryX=0;entryY=0.5;entryDx=0;entryDy=0;" parent="143" source="8" target="85" edge="1">
                    <mxGeometry relative="1" as="geometry">
                        <Array as="points">
                            <mxPoint x="1084" y="380"/>
                            <mxPoint x="1084" y="545"/>
                        </Array>
                    </mxGeometry>
                </mxCell>
                <mxCell id="99" style="edgeStyle=orthogonalEdgeStyle;html=1;exitX=1;exitY=0.5;exitDx=0;exitDy=0;entryX=1;entryY=0.5;entryDx=0;entryDy=0;" parent="143" source="86" target="84" edge="1">
                    <mxGeometry relative="1" as="geometry">
                        <Array as="points">
                            <mxPoint x="1748" y="398"/>
                            <mxPoint x="1748" y="471"/>
                        </Array>
                    </mxGeometry>
                </mxCell>
                <mxCell id="101" style="edgeStyle=orthogonalEdgeStyle;jumpStyle=arc;jumpSize=20;html=1;exitX=0;exitY=0.5;exitDx=0;exitDy=0;" parent="143" source="86" edge="1">
                    <mxGeometry relative="1" as="geometry">
                        <mxPoint x="1334" y="445" as="targetPoint"/>
                        <Array as="points">
                            <mxPoint x="1414" y="398"/>
                            <mxPoint x="1414" y="435"/>
                            <mxPoint x="1334" y="435"/>
                        </Array>
                    </mxGeometry>
                </mxCell>
                <mxCell id="86" value="Esfuerzos estáticos y dinámicos máximos" style="rounded=0;whiteSpace=wrap;html=1;" parent="143" vertex="1">
                    <mxGeometry x="1515" y="368" width="210" height="60" as="geometry"/>
                </mxCell>
                <mxCell id="91" style="edgeStyle=orthogonalEdgeStyle;html=1;exitX=1;exitY=0.5;exitDx=0;exitDy=0;entryX=0;entryY=0.5;entryDx=0;entryDy=0;" parent="143" source="7" target="86" edge="1">
                    <mxGeometry relative="1" as="geometry">
                        <Array as="points">
                            <mxPoint x="924" y="312"/>
                            <mxPoint x="924" y="345"/>
                            <mxPoint x="1104" y="345"/>
                            <mxPoint x="1104" y="398"/>
                        </Array>
                    </mxGeometry>
                </mxCell>
                <mxCell id="93" style="edgeStyle=orthogonalEdgeStyle;html=1;exitX=1;exitY=0.5;exitDx=0;exitDy=0;entryX=1;entryY=0.5;entryDx=0;entryDy=0;" parent="143" source="74" target="86" edge="1">
                    <mxGeometry relative="1" as="geometry">
                        <Array as="points">
                            <mxPoint x="1748" y="105"/>
                            <mxPoint x="1748" y="398"/>
                        </Array>
                    </mxGeometry>
                </mxCell>
                <mxCell id="103" value="Criterio de rigidez" style="swimlane;whiteSpace=wrap;html=1;container=0;" parent="143" vertex="1">
                    <mxGeometry x="1784" y="75" width="210" height="60" as="geometry"/>
                </mxCell>
                <mxCell id="106" value="Deformación linear y &lt;br&gt;angular máxima" style="text;html=1;align=center;verticalAlign=middle;resizable=0;points=[];autosize=1;strokeColor=none;fillColor=none;" parent="103" vertex="1">
                    <mxGeometry x="40" y="22" width="130" height="40" as="geometry"/>
                </mxCell>
                <mxCell id="129" style="edgeStyle=orthogonalEdgeStyle;jumpStyle=arc;jumpSize=20;html=1;exitX=1;exitY=0.5;exitDx=0;exitDy=0;entryX=0;entryY=0.5;entryDx=0;entryDy=0;" parent="143" source="77" target="103" edge="1">
                    <mxGeometry relative="1" as="geometry"/>
                </mxCell>
                <mxCell id="118" value="Criterio estático" style="swimlane;whiteSpace=wrap;html=1;container=0;" parent="143" vertex="1">
                    <mxGeometry x="1784" y="185" width="215" height="65" as="geometry"/>
                </mxCell>
                <mxCell id="130" style="edgeStyle=orthogonalEdgeStyle;jumpStyle=arc;jumpSize=20;html=1;exitX=1;exitY=0.5;exitDx=0;exitDy=0;entryX=0;entryY=0.5;entryDx=0;entryDy=0;" parent="143" source="84" target="118" edge="1">
                    <mxGeometry relative="1" as="geometry"/>
                </mxCell>
                <mxCell id="122" value="Criterio dinámico" style="swimlane;whiteSpace=wrap;html=1;container=0;" parent="143" vertex="1">
                    <mxGeometry x="1784" y="295" width="210" height="60" as="geometry"/>
                </mxCell>
                <mxCell id="131" style="edgeStyle=orthogonalEdgeStyle;jumpStyle=arc;jumpSize=20;html=1;exitX=1;exitY=0.5;exitDx=0;exitDy=0;entryX=0;entryY=0.5;entryDx=0;entryDy=0;" parent="143" source="84" target="122" edge="1">
                    <mxGeometry relative="1" as="geometry"/>
                </mxCell>
                <mxCell id="124" value="Criterio vibracional" style="swimlane;whiteSpace=wrap;html=1;container=0;" parent="143" vertex="1">
                    <mxGeometry x="1784" y="405" width="210" height="60" as="geometry"/>
                </mxCell>
                <mxCell id="132" style="edgeStyle=orthogonalEdgeStyle;jumpStyle=arc;jumpSize=20;html=1;exitX=1;exitY=0.5;exitDx=0;exitDy=0;entryX=0;entryY=0.5;entryDx=0;entryDy=0;" parent="143" source="75" target="124" edge="1">
                    <mxGeometry relative="1" as="geometry">
                        <Array as="points">
                            <mxPoint x="1754" y="325"/>
                            <mxPoint x="1754" y="435"/>
                        </Array>
                    </mxGeometry>
                </mxCell>
                <mxCell id="126" value="Criterio de vida" style="swimlane;whiteSpace=wrap;html=1;container=0;" parent="143" vertex="1">
                    <mxGeometry x="1784" y="515" width="210" height="60" as="geometry"/>
                </mxCell>
                <mxCell id="133" style="edgeStyle=orthogonalEdgeStyle;jumpStyle=arc;jumpSize=20;html=1;exitX=1;exitY=0.5;exitDx=0;exitDy=0;entryX=0;entryY=0.5;entryDx=0;entryDy=0;" parent="143" source="85" target="126" edge="1">
                    <mxGeometry relative="1" as="geometry"/>
                </mxCell>
                <mxCell id="119" value="Factor de seguridad estático mínimo" style="text;html=1;align=center;verticalAlign=middle;resizable=0;points=[];autosize=1;strokeColor=none;fillColor=none;" parent="143" vertex="1">
                    <mxGeometry x="1782" y="214" width="220" height="30" as="geometry"/>
                </mxCell>
                <mxCell id="123" value="Factor de seguridad dinámico mínimo" style="text;html=1;align=center;verticalAlign=middle;resizable=0;points=[];autosize=1;strokeColor=none;fillColor=none;" parent="143" vertex="1">
                    <mxGeometry x="1779" y="321" width="220" height="30" as="geometry"/>
                </mxCell>
                <mxCell id="125" value="Velocidad crítica promedio" style="text;html=1;align=center;verticalAlign=middle;resizable=0;points=[];autosize=1;strokeColor=none;fillColor=none;" parent="143" vertex="1">
                    <mxGeometry x="1809" y="432" width="160" height="30" as="geometry"/>
                </mxCell>
                <mxCell id="127" value="Número de horas de vida" style="text;html=1;align=center;verticalAlign=middle;resizable=0;points=[];autosize=1;strokeColor=none;fillColor=none;" parent="143" vertex="1">
                    <mxGeometry x="1809" y="542" width="160" height="30" as="geometry"/>
                </mxCell>
                <mxCell id="141" style="edgeStyle=orthogonalEdgeStyle;jumpStyle=arc;jumpSize=20;html=1;exitX=0;exitY=0;exitDx=0;exitDy=30;exitPerimeter=0;entryX=0.5;entryY=1;entryDx=0;entryDy=0;" parent="143" source="134" target="3" edge="1">
                    <mxGeometry relative="1" as="geometry"/>
                </mxCell>
                <mxCell id="134" value="Apartir de los resultados obtenidos en los 5 criterios de diseño establecidos y las representaciones gráficas respectivas, el usuario esta en la facultad de mejorar reiterativamente su diseño inicial hasta optimizarlo segun sus requerimientos, restricciones y condiciones de trabajo" style="shape=cube;whiteSpace=wrap;html=1;boundedLbl=1;backgroundOutline=1;darkOpacity=0.05;darkOpacity2=0.1;" parent="143" vertex="1">
                    <mxGeometry x="564" y="665" width="1041" height="80" as="geometry"/>
                </mxCell>
                <mxCell id="140" style="edgeStyle=orthogonalEdgeStyle;jumpStyle=arc;jumpSize=20;html=1;exitX=0;exitY=0.5;exitDx=0;exitDy=0;entryX=1.003;entryY=0.506;entryDx=0;entryDy=0;entryPerimeter=0;" parent="143" source="135" target="134" edge="1">
                    <mxGeometry relative="1" as="geometry"/>
                </mxCell>
                <mxCell id="135" value="Representaciónes gráficas bidimensionales&lt;br&gt;o tridimensionales de los resultados" style="html=1;whiteSpace=wrap;container=1;recursiveResize=0;collapsible=0;" parent="143" vertex="1">
                    <mxGeometry x="1684" y="665" width="310" height="80" as="geometry"/>
                </mxCell>
                <mxCell id="136" value="" style="triangle;html=1;whiteSpace=wrap;rotation=-180;" parent="135" vertex="1">
                    <mxGeometry x="280" y="25" width="20" height="30" as="geometry"/>
                </mxCell>
                <mxCell id="139" style="edgeStyle=orthogonalEdgeStyle;jumpStyle=arc;jumpSize=20;html=1;exitX=0.1;exitY=0.5;exitDx=0;exitDy=0;exitPerimeter=0;" parent="143" source="138" edge="1">
                    <mxGeometry relative="1" as="geometry">
                        <mxPoint x="1834" y="665" as="targetPoint"/>
                        <Array as="points">
                            <mxPoint x="1279" y="635"/>
                            <mxPoint x="1834" y="635"/>
                            <mxPoint x="1834" y="665"/>
                        </Array>
                    </mxGeometry>
                </mxCell>
                <mxCell id="138" value="" style="shape=curlyBracket;whiteSpace=wrap;html=1;rounded=1;flipH=1;labelPosition=right;verticalLabelPosition=middle;align=left;verticalAlign=middle;rotation=90;size=0.5;" parent="143" vertex="1">
                    <mxGeometry x="1256.5" y="-101.5" width="45" height="1430" as="geometry"/>
                </mxCell>
                <mxCell id="149" value="MÓDULO DE ANÁLISIS DE ELEMENTOS PLANOS" style="swimlane;startSize=60;horizontal=0;html=1;fontSize=30;" vertex="1" parent="142">
                    <mxGeometry y="4708.5" width="2098" height="820" as="geometry"/>
                </mxCell>
            </root>
        </mxGraphModel>
    </diagram>
</mxfile>